<svg xmlns="http://www.w3.org/2000/svg" viewBox="0 0 760 210" role="img" aria-labelledby="title desc">
  <title id="title">Crest Property Maintenance</title>
  <desc id="desc">A navy commercial building crest beside the Crest Property Maintenance wordmark.</desc>
  <g fill="none" stroke="#082653" stroke-width="10" stroke-linejoin="round">
    <path d="M36 130V55L105 20l69 35v75"/>
    <path d="M50 130V76l43-22v76M105 130V32l55 28v70"/>
    <path d="M25 133c41-29 116-29 159 0"/>
  </g>
  <path d="M45 132c26 17 109 17 130 0" fill="none" stroke="#4a83c6" stroke-width="8" stroke-linecap="round"/>
  <path d="M99 95l-16 42M87 118l-20 12M92 121l-16 23" stroke="#082653" stroke-width="9" stroke-linecap="round"/>
  <g fill="#082653">
    <rect x="61" y="83" width="13" height="13" rx="2"/><rect x="61" y="105" width="13" height="13" rx="2"/>
    <rect x="126" y="63" width="13" height="13" rx="2"/><rect x="126" y="86" width="13" height="13" rx="2"/><rect x="126" y="109" width="13" height="13" rx="2"/>
  </g>
  <text x="220" y="105" fill="#082653" font-family="Arial, Helvetica, sans-serif" font-size="72" font-weight="800" letter-spacing="7">CREST</text>
  <text x="224" y="147" fill="#5b6471" font-family="Arial, Helvetica, sans-serif" font-size="24" font-weight="600" letter-spacing="5">PROPERTY MAINTENANCE</text>
  <text x="225" y="181" fill="#4a83c6" font-family="Arial, Helvetica, sans-serif" font-size="15" font-weight="700" letter-spacing="3">CLEAN • MAINTAIN • READY TO LEASE</text>
</svg>
